<svg xmlns="http://www.w3.org/2000/svg" xmlns:xlink="http://www.w3.org/1999/xlink" width="350" zoomAndPan="magnify" viewBox="0 0 262.5 74.999997" height="100" preserveAspectRatio="xMidYMid meet" version="1.0"><defs><g/><clipPath id="e9aac76f38"><path d="M 0 0.0703125 L 262 0.0703125 L 262 74.925781 L 0 74.925781 Z M 0 0.0703125 " clip-rule="nonzero"/></clipPath><clipPath id="d3c19a37d1"><path d="M 138.710938 0.847656 L 259.835938 0.847656 L 259.835938 74.152344 L 138.710938 74.152344 Z M 138.710938 0.847656 " clip-rule="nonzero"/></clipPath><clipPath id="8b78aca9ee"><path d="M 153.683594 0.847656 L 244.785156 0.847656 C 248.753906 0.847656 252.5625 2.425781 255.371094 5.234375 C 258.179688 8.039062 259.753906 11.847656 259.753906 15.820312 L 259.753906 59.179688 C 259.753906 63.152344 258.179688 66.960938 255.371094 69.765625 C 252.5625 72.574219 248.753906 74.152344 244.785156 74.152344 L 153.683594 74.152344 C 149.710938 74.152344 145.902344 72.574219 143.097656 69.765625 C 140.289062 66.960938 138.710938 63.152344 138.710938 59.179688 L 138.710938 15.820312 C 138.710938 11.847656 140.289062 8.039062 143.097656 5.234375 C 145.902344 2.425781 149.710938 0.847656 153.683594 0.847656 Z M 153.683594 0.847656 " clip-rule="nonzero"/></clipPath></defs><g clip-path="url(#e9aac76f38)"><path fill="#ffffff" d="M 0 0.0703125 L 262 0.0703125 L 262 74.929688 L 0 74.929688 Z M 0 0.0703125 " fill-opacity="1" fill-rule="nonzero"/><path fill="#ffffff" d="M 0 0.0703125 L 262 0.0703125 L 262 74.929688 L 0 74.929688 Z M 0 0.0703125 " fill-opacity="1" fill-rule="nonzero"/></g><g clip-path="url(#d3c19a37d1)"><g clip-path="url(#8b78aca9ee)"><path fill="#daebfe" d="M 138.710938 0.847656 L 259.835938 0.847656 L 259.835938 74.152344 L 138.710938 74.152344 Z M 138.710938 0.847656 " fill-opacity="1" fill-rule="nonzero"/></g></g><g fill="#000000" fill-opacity="1"><g transform="translate(146.294613, 56.903632)"><g><path d="M 29.4375 -22.1875 L 29.4375 -37.328125 L 33.796875 -37.328125 L 33.796875 0 L 29.4375 0 L 29.4375 -18.453125 L 10.03125 -18.453125 L 10.03125 0 L 5.640625 0 L 5.640625 -37.328125 L 10.03125 -37.328125 L 10.03125 -22.1875 Z M 29.4375 -22.1875 "/></g></g><g transform="translate(185.765694, 56.903632)"><g><path d="M 13.90625 0.53125 C 10.726562 0.53125 8.359375 -0.304688 6.796875 -1.984375 C 5.242188 -3.671875 4.46875 -6.140625 4.46875 -9.390625 L 4.46875 -28.15625 L 8.625 -28.15625 L 8.625 -9.5 C 8.625 -5.226562 10.632812 -3.09375 14.65625 -3.09375 C 17.207031 -3.09375 19.222656 -3.925781 20.703125 -5.59375 C 22.179688 -7.257812 22.921875 -9.960938 22.921875 -13.703125 L 22.921875 -28.15625 L 27.078125 -28.15625 L 27.078125 0 L 23.15625 0 L 23.15625 -4.421875 L 22.625 -4.546875 C 21.644531 -2.828125 20.476562 -1.550781 19.125 -0.71875 C 17.78125 0.113281 16.039062 0.53125 13.90625 0.53125 Z M 13.90625 0.53125 "/></g></g><g transform="translate(217.756164, 56.903632)"><g><path d="M 18.71875 0.53125 C 16.625 0.53125 14.804688 0.128906 13.265625 -0.671875 C 11.722656 -1.484375 10.5 -2.550781 9.59375 -3.875 L 9.0625 -3.78125 L 9.0625 0 L 4.90625 0 L 4.90625 -39.46875 L 9.0625 -39.46875 L 9.0625 -23.9375 L 9.59375 -23.84375 C 11.738281 -27.070312 14.851562 -28.6875 18.9375 -28.6875 C 21.25 -28.6875 23.273438 -28.148438 25.015625 -27.078125 C 26.753906 -26.015625 28.101562 -24.390625 29.0625 -22.203125 C 30.019531 -20.015625 30.5 -17.300781 30.5 -14.0625 C 30.5 -10.863281 29.992188 -8.171875 28.984375 -5.984375 C 27.972656 -3.796875 26.582031 -2.160156 24.8125 -1.078125 C 23.039062 -0.00390625 21.007812 0.53125 18.71875 0.53125 Z M 17.71875 -3.1875 C 23.332031 -3.1875 26.140625 -6.8125 26.140625 -14.0625 C 26.140625 -17.820312 25.40625 -20.578125 23.9375 -22.328125 C 22.476562 -24.085938 20.40625 -24.96875 17.71875 -24.96875 C 15.082031 -24.96875 12.976562 -24.066406 11.40625 -22.265625 C 9.84375 -20.472656 9.0625 -17.738281 9.0625 -14.0625 C 9.0625 -10.40625 9.84375 -7.675781 11.40625 -5.875 C 12.976562 -4.082031 15.082031 -3.1875 17.71875 -3.1875 Z M 17.71875 -3.1875 "/></g></g></g><g fill="#000000" fill-opacity="1"><g transform="translate(-1.497148, 57.720628)"><g><path d="M 5.640625 0 L 5.640625 -37.328125 L 19.78125 -37.328125 C 22.082031 -37.328125 24.03125 -36.957031 25.625 -36.21875 C 27.226562 -35.488281 28.429688 -34.445312 29.234375 -33.09375 C 30.046875 -31.738281 30.453125 -30.128906 30.453125 -28.265625 C 30.453125 -26.640625 30.015625 -25.171875 29.140625 -23.859375 C 28.265625 -22.554688 27.007812 -21.539062 25.375 -20.8125 L 25.375 -20.265625 C 27.863281 -19.648438 29.75 -18.535156 31.03125 -16.921875 C 32.3125 -15.304688 32.953125 -13.273438 32.953125 -10.828125 C 32.953125 -7.347656 31.9375 -4.671875 29.90625 -2.796875 C 27.875 -0.929688 24.859375 0 20.859375 0 Z M 19.578125 -21.640625 C 21.640625 -21.640625 23.238281 -22.179688 24.375 -23.265625 C 25.519531 -24.347656 26.09375 -25.832031 26.09375 -27.71875 C 26.09375 -29.707031 25.539062 -31.203125 24.4375 -32.203125 C 23.34375 -33.203125 21.722656 -33.703125 19.578125 -33.703125 L 10.03125 -33.703125 L 10.03125 -21.640625 Z M 20.53125 -3.625 C 25.832031 -3.625 28.484375 -6.023438 28.484375 -10.828125 C 28.484375 -15.617188 25.832031 -18.015625 20.53125 -18.015625 L 10.03125 -18.015625 L 10.03125 -3.625 Z M 20.53125 -3.625 "/></g></g><g transform="translate(34.425111, 57.720628)"><g><path d="M 4.90625 0 L 4.90625 -28.15625 L 8.859375 -28.15625 L 8.859375 -23.734375 L 9.390625 -23.609375 C 10.703125 -26.804688 13.171875 -28.40625 16.796875 -28.40625 C 18.722656 -28.40625 20.160156 -28.054688 21.109375 -27.359375 L 20.046875 -23.84375 L 19.53125 -23.734375 C 18.476562 -24.265625 17.320312 -24.53125 16.0625 -24.53125 C 13.8125 -24.53125 12.082031 -23.6875 10.875 -22 C 9.664062 -20.320312 9.0625 -17.59375 9.0625 -13.8125 L 9.0625 0 Z M 4.90625 0 "/></g></g><g transform="translate(56.177609, 57.720628)"><g><path d="M 13.90625 0.53125 C 10.726562 0.53125 8.359375 -0.304688 6.796875 -1.984375 C 5.242188 -3.671875 4.46875 -6.140625 4.46875 -9.390625 L 4.46875 -28.15625 L 8.625 -28.15625 L 8.625 -9.5 C 8.625 -5.226562 10.632812 -3.09375 14.65625 -3.09375 C 17.207031 -3.09375 19.222656 -3.925781 20.703125 -5.59375 C 22.179688 -7.257812 22.921875 -9.960938 22.921875 -13.703125 L 22.921875 -28.15625 L 27.078125 -28.15625 L 27.078125 0 L 23.15625 0 L 23.15625 -4.421875 L 22.625 -4.546875 C 21.644531 -2.828125 20.476562 -1.550781 19.125 -0.71875 C 17.78125 0.113281 16.039062 0.53125 13.90625 0.53125 Z M 13.90625 0.53125 "/></g></g><g transform="translate(88.168078, 57.720628)"><g><path d="M 7 -33.59375 C 6.113281 -33.59375 5.394531 -33.867188 4.84375 -34.421875 C 4.289062 -34.972656 4.015625 -35.675781 4.015625 -36.53125 C 4.015625 -37.382812 4.289062 -38.085938 4.84375 -38.640625 C 5.394531 -39.191406 6.113281 -39.46875 7 -39.46875 C 7.882812 -39.46875 8.601562 -39.191406 9.15625 -38.640625 C 9.707031 -38.085938 9.984375 -37.382812 9.984375 -36.53125 C 9.984375 -35.675781 9.707031 -34.972656 9.15625 -34.421875 C 8.601562 -33.867188 7.882812 -33.59375 7 -33.59375 Z M 4.90625 0 L 4.90625 -28.15625 L 9.0625 -28.15625 L 9.0625 0 Z M 4.90625 0 "/></g></g><g transform="translate(102.13359, 57.720628)"><g><path d="M 4.90625 0 L 4.90625 -28.15625 L 8.859375 -28.15625 L 8.859375 -23.734375 L 9.390625 -23.609375 C 10.328125 -25.265625 11.519531 -26.523438 12.96875 -27.390625 C 14.425781 -28.253906 16.203125 -28.6875 18.296875 -28.6875 C 21.691406 -28.6875 24.148438 -27.820312 25.671875 -26.09375 C 27.191406 -24.375 27.953125 -21.71875 27.953125 -18.125 L 27.953125 0 L 23.796875 0 L 23.796875 -18.015625 C 23.796875 -19.722656 23.578125 -21.09375 23.140625 -22.125 C 22.703125 -23.15625 22.03125 -23.898438 21.125 -24.359375 C 20.21875 -24.828125 19.019531 -25.0625 17.53125 -25.0625 C 15 -25.0625 12.953125 -24.222656 11.390625 -22.546875 C 9.835938 -20.878906 9.0625 -18.179688 9.0625 -14.453125 L 9.0625 0 Z M 4.90625 0 "/></g></g></g></svg>